<?xml version="1.0" encoding="utf-8"?>
<!-- Generator: Adobe Illustrator 23.0.1, SVG Export Plug-In . SVG Version: 6.00 Build 0)  -->
<svg version="1.1" xmlns="http://www.w3.org/2000/svg" xmlns:xlink="http://www.w3.org/1999/xlink" x="0px" y="0px"
	 viewBox="0 0 170 80" style="enable-background:new 0 0 170 80;" xml:space="preserve">
<style type="text/css">
	.st0{fill:#FFFFFF;fill-opacity:0;}
	.st1{clip-path:url(#SVGID_2_);}
	.st2{fill-rule:evenodd;clip-rule:evenodd;fill:#454E3F;}
	.st3{fill:#454E3F;}
	.st4{fill:#FFFFFF;}
	.st5{fill:#A7852E;}
</style>
<g id="master-artboard_1_">
	<rect id="ee-background_4_" x="0" class="st0" width="170" height="80"/>
	<g>
		<defs>
			<rect id="SVGID_1_" x="0" width="170" height="80"/>
		</defs>
		<clipPath id="SVGID_2_">
			<use xlink:href="#SVGID_1_"  style="overflow:visible;"/>
		</clipPath>
		<g id="g14_1_" class="st1">
			<g id="g20_1_" transform="translate(469.1716,414.4302)">
				<path id="path22_1_" class="st2" d="M-423.61-372.75c1.01,0.12,1.52,0.14,2.12,0.14c3.13,0,4.87-1.28,4.87-3.57
					c0-1.9-1.54-3.93-5.35-3.93h-5.04v0.41c1.16,0,1.57,0.51,1.57,2.19v8.65c0,1.83-0.6,2.15-1.57,2.15v0.41h4.97v-0.41
					c-1.16,0-1.57-0.48-1.57-2.19V-372.75z M-423.61-379.57h1.71c2.53,0,3.35,1.98,3.35,3.45c0,1.88-1.3,2.99-3.35,2.99
					c-0.72,0-1.08-0.02-1.71-0.24V-379.57"/>
			</g>
			<g id="g24_1_" transform="translate(527.4045,394.4178)">
				<path id="path26_1_" class="st2" d="M-467.21-347.71c0.26,0.78-0.12,1.12-0.9,1.12v0.34h4.06v-0.34c-1.02,0-1.31-0.32-1.65-1.39
					l-3.34-9.9h-1.19l-3.17,9.48c-0.36,1.06-0.62,1.65-1.71,1.81v0.34h2.97v-0.34c-1.2-0.02-1-0.88-0.62-2.01l0.78-2.31h3.72
					L-467.21-347.71z M-468.52-351.61h-3.23l1.61-4.88h0.04L-468.52-351.61"/>
			</g>
			<g id="g28_1_" transform="translate(589.3012,425.8471)">
				<path id="path30_1_" class="st3" d="M-513.56-387.04c0-1.35,0.36-1.81,1.49-1.81v-0.34h-3.47v0.34c1,0,1.41,0.38,1.41,1.89v6.73
					h-0.04l-7.19-8.96h-2.95v0.34c1.37,0.12,1.71,0.84,1.71,2.13v6.73c0,1.67-0.46,1.97-1.43,1.97v0.34h3.5v-0.34
					c-1.04,0-1.51-0.42-1.51-1.59v-8.07h0.04l8.12,10h0.34V-387.04"/>
			</g>
			<g id="g32_1_" transform="translate(646.2211,414.4302)">
				<path id="path34_1_" class="st2" d="M-556.18-372.75c1.01,0.12,1.52,0.14,2.12,0.14c3.13,0,4.87-1.28,4.87-3.57
					c0-1.9-1.54-3.93-5.35-3.93h-5.04v0.41c1.16,0,1.57,0.51,1.57,2.19v8.65c0,1.83-0.6,2.15-1.57,2.15v0.41h4.97v-0.41
					c-1.16,0-1.57-0.48-1.57-2.19V-372.75z M-556.18-379.57h1.71c2.53,0,3.35,1.98,3.35,3.45c0,1.88-1.3,2.99-3.35,2.99
					c-0.72,0-1.08-0.02-1.71-0.24V-379.57"/>
			</g>
			<g id="g36_1_" transform="translate(704.4518,394.4178)">
				<path id="path38_1_" class="st2" d="M-599.79-347.71c0.26,0.78-0.12,1.12-0.9,1.12v0.34h4.06v-0.34c-1.02,0-1.31-0.32-1.65-1.39
					l-3.33-9.9h-1.19l-3.17,9.48c-0.36,1.06-0.62,1.65-1.71,1.81v0.34h2.97v-0.34c-1.21-0.02-1-0.88-0.62-2.01l0.78-2.31h3.72
					L-599.79-347.71z M-601.09-351.61h-3.23l1.61-4.88h0.04L-601.09-351.61"/>
			</g>
			<g id="g40_1_" transform="translate(761.4689,421.3687)">
				<path id="path42_1_" class="st3" d="M-642.48-381.43v-3.44h-0.32c-0.12,0.24-0.32,0.36-0.62,0.36c-0.68,0-1.77-0.48-3.21-0.48
					c-3.43,0-5.95,2.69-5.95,6.35c0,3.84,2.89,5.73,5.66,5.73c2.21,0,4.04-1.15,4.8-2.97l-0.3-0.28c-0.86,1.69-2.21,2.53-4.02,2.53
					c-2.59,0-4.38-2.27-4.38-5.72c0-2.95,1.49-5.18,4.26-5.18c1.99,0,3.17,0.94,3.74,3.11H-642.48"/>
			</g>
			<g id="g44_1_" transform="translate(782.1796,425.7652)">
				<path id="path46_1_" class="st3" d="M-657.99-386.93c0-1.39,0.34-1.83,1.31-1.83v-0.34h-4.14v0.34c0.98,0,1.31,0.38,1.31,1.83
					v7.17c0,1.47-0.36,1.83-1.31,1.83v0.34h4.14v-0.34c-0.96,0-1.31-0.42-1.31-1.83V-386.93"/>
			</g>
			<g id="g48_1_" transform="translate(806.8104,410.7309)">
				<path id="path50_1_" class="st3" d="M-676.44-368.12h3.03c0.8,0,1.21,0.48,1.25,1.31h0.32v-3.23h-0.32
					c-0.1,0.92-0.42,1.37-1.29,1.37h-2.99v-4.82h2.93c1.25,0,1.59,0.08,1.87,1.49h0.26v-2.05h-7.89v0.34c0.96,0,1.31,0.38,1.31,1.83
					v7.17c0,1.43-0.34,1.83-1.31,1.83v0.34h4.14v-0.34c-0.96,0-1.31-0.42-1.31-1.83V-368.12"/>
			</g>
			<g id="g52_1_" transform="translate(845.9167,425.7652)">
				<path id="path54_1_" class="st3" d="M-705.72-386.93c0-1.39,0.34-1.83,1.31-1.83v-0.34h-4.14v0.34c0.98,0,1.31,0.38,1.31,1.83
					v7.17c0,1.47-0.36,1.83-1.31,1.83v0.34h4.14v-0.34c-0.96,0-1.31-0.42-1.31-1.83V-386.93"/>
			</g>
			<g id="g56_1_" transform="translate(901.5756,421.3687)">
				<path id="path58_1_" class="st3" d="M-747.4-381.43v-3.44h-0.32c-0.12,0.24-0.32,0.36-0.62,0.36c-0.68,0-1.77-0.48-3.21-0.48
					c-3.43,0-5.95,2.69-5.95,6.35c0,3.84,2.89,5.73,5.66,5.73c2.21,0,4.04-1.15,4.8-2.97l-0.3-0.28c-0.86,1.69-2.21,2.53-4.02,2.53
					c-2.59,0-4.38-2.27-4.38-5.72c0-2.95,1.49-5.18,4.26-5.18c1.99,0,3.17,0.94,3.74,3.11H-747.4"/>
			</g>
			<g id="g60_1_" transform="translate(357.457,363.449)">
				<path id="path62_1_" class="st4" d="M-340.01-309.03c0.58-1.06,1.38-2.02,2.54-2.94c1.02-0.82,2.04-1.32,3.08-1.66
					c0.96-0.32,1.92-0.49,3-0.49h4.68v1.46c-0.21,0.1-0.45,0.2-0.67,0.28c-0.94,0.35-2.55,0.32-3.34,0.32
					c-0.06,0.36-0.12,0.71-0.51,1.06c-0.41,0.36-0.99,0.71-1.71,0.82c-1.58,0.24-2.51,0.39-3.95,1.06c-0.85,0.4-1.65,0.85-2.41,1.49
					c-0.26,0.22-0.58,0.55-0.8,0.86c-0.26,0.36-0.42,0.79-0.6,1.07c-0.11,0.16-0.28,0.23-0.42,0.26
					C-341.02-306.8-340.57-308.01-340.01-309.03"/>
			</g>
			<g id="g64_1_" transform="translate(349.1558,470.2055)">
				<path id="path66_1_" class="st4" d="M-333.79-442.59c0.18,0,0.25-0.92,0.22-1.48c-0.02-0.24-0.03-0.92-0.02-1.22
					c0.01-0.49,0.33-2.75,0.44-3.36c1.61,0.16,2.63,1.65,2.6,2.95c-0.59,1.26-0.95,2.28-1.42,3.74c-0.62,1.95-0.79,3.09-1.1,5.11
					c-0.29,1.88-0.37,2.8-0.37,4.64c0,1.61,0.18,2.47,0.19,4.19c0.01,0.34-0.05,0.75-0.22,1.06c-0.09,0.18-0.19,0.31-0.32,0.4
					c-0.13-0.09-0.23-0.22-0.32-0.4c-0.17-0.31-0.23-0.72-0.22-1.06c0.01-1.72,0.18-2.57,0.19-4.19c0-1.84-0.08-2.76-0.37-4.64
					c-0.32-2.02-0.49-3.16-1.1-5.11c-0.47-1.46-0.83-2.49-1.42-3.74c-0.03-1.3,1-2.79,2.61-2.95c0.12,0.61,0.43,2.87,0.43,3.36
					c0.01,0.3-0.01,0.98-0.02,1.22C-334.05-443.51-333.96-442.59-333.79-442.59"/>
			</g>
			<g id="g68_1_" transform="translate(410.2666,400.43)">
				<path id="path70_1_" class="st4" d="M-379.56-355.29c-0.58,0.45-1.11,0.76-1.77,1.01c-0.86,0.32-2.34,0.3-3.07,0.3
					c0.12,0.35,0.03,0.76-0.32,1.08c-0.38,0.34-1.05,0.54-1.71,0.64c-1.45,0.22-2.3,0.35-3.62,0.98c-0.78,0.36-1.51,0.78-2.21,1.37
					c-0.24,0.2-0.54,0.51-0.73,0.78c-0.24,0.33-0.38,0.73-0.55,0.98c-0.1,0.15-0.26,0.21-0.38,0.24c0.09-1.25,0.5-2.36,1.02-3.29
					c0.53-0.98,1.26-1.85,2.32-2.71c0.94-0.74,1.87-1.21,2.82-1.53c0.88-0.29,1.77-0.45,2.75-0.45h5.45V-355.29"/>
			</g>
			<g id="g72_1_" transform="translate(341.2962,384.1313)">
				<path id="path74_1_" class="st4" d="M-327.91-334.9c-0.54-0.97-1.26-1.85-2.33-2.7c-0.93-0.75-1.87-1.21-2.82-1.53
					c-0.88-0.29-1.77-0.45-2.76-0.45h-5.45v0.58c0.58,0.46,1.11,0.76,1.77,1.01c0.86,0.32,2.34,0.3,3.07,0.3
					c-0.12,0.35-0.04,0.76,0.32,1.08c0.38,0.34,1.05,0.54,1.71,0.64c1.45,0.22,2.3,0.35,3.63,0.98c0.78,0.36,1.51,0.78,2.21,1.36
					c0.24,0.2,0.53,0.51,0.73,0.78c0.23,0.33,0.38,0.73,0.55,0.98c0.1,0.14,0.25,0.21,0.38,0.24
					C-326.98-332.86-327.39-333.97-327.91-334.9"/>
			</g>
			<g id="g76_1_" transform="translate(340.9351,363.449)">
				<path id="path78_1_" class="st4" d="M-327.64-309.03c-0.58-1.06-1.38-2.02-2.54-2.94c-1.02-0.82-2.04-1.32-3.07-1.66
					c-0.96-0.32-1.93-0.49-3-0.49h-4.68v1.46c0.21,0.1,0.45,0.2,0.67,0.28c0.94,0.35,2.55,0.32,3.34,0.32
					c0.06,0.36,0.12,0.71,0.51,1.06c0.41,0.36,0.99,0.71,1.71,0.82c1.58,0.24,2.51,0.39,3.94,1.06c0.85,0.4,1.65,0.85,2.41,1.49
					c0.26,0.22,0.58,0.55,0.8,0.86c0.26,0.36,0.42,0.79,0.6,1.07c0.11,0.16,0.28,0.23,0.42,0.26
					C-326.62-306.8-327.08-308.01-327.64-309.03"/>
			</g>
			<g id="g80_1_" transform="translate(395.9576,415.8669)">
				<path id="path82_1_" class="st4" d="M-368.84-374.61c-0.75,0.28-2,0.29-2.62,0.29c0.25,0.36,0.15,0.85-0.15,1.17
					c-0.33,0.33-1.03,0.42-1.59,0.51c-1.24,0.21-1.97,0.35-3.1,0.95c-0.67,0.36-1.29,0.77-1.89,1.34c-0.21,0.19-0.46,0.49-0.62,0.76
					c-0.2,0.32-0.33,0.71-0.47,0.96c-0.09,0.14-0.22,0.2-0.32,0.24c0.07-1.22,0.43-2.31,0.87-3.22c0.46-0.95,1.08-1.81,1.99-2.64
					c0.8-0.72,1.6-1.18,2.41-1.48c0.76-0.29,1.52-0.44,2.36-0.44h5.45C-366.78-375.68-367.98-374.93-368.84-374.61"/>
			</g>
			<g id="g84_1_" transform="translate(302.4417,415.8669)">
				<path id="path86_1_" class="st4" d="M-298.81-374.61c0.75,0.28,2,0.29,2.62,0.29c-0.25,0.36-0.15,0.85,0.15,1.17
					c0.33,0.33,1.03,0.42,1.59,0.51c1.24,0.21,1.97,0.35,3.1,0.95c0.67,0.36,1.29,0.77,1.89,1.34c0.21,0.19,0.46,0.49,0.62,0.76
					c0.21,0.32,0.33,0.71,0.47,0.96c0.09,0.14,0.22,0.2,0.32,0.24c-0.07-1.22-0.43-2.31-0.87-3.22c-0.46-0.95-1.08-1.81-1.99-2.64
					c-0.8-0.72-1.6-1.18-2.41-1.48c-0.76-0.29-1.52-0.44-2.36-0.44h-5.45C-300.87-375.68-299.67-374.93-298.81-374.61"/>
			</g>
			<g id="g88_1_" transform="translate(345.4492,430.4417)">
				<path id="path90_1_" class="st4" d="M-331.02-392.84c-0.03-0.64-0.07-1.27-0.15-1.94c-0.09-0.81-0.23-1.68-0.44-2.66
					c-0.22-0.99-0.46-2-0.74-2.96c-0.2-0.69-0.42-1.35-0.67-1.95c-0.48-1.21-0.97-2.11-1.41-2.74c-0.2-0.07-0.69-0.16-1.2-0.11
					c-0.45,0.05-0.91,0.16-1.27,0.36c0.26,0.29,0.5,0.57,0.74,0.85c0.29,0.36,0.55,0.68,0.69,0.87c0.18,0.25,0.6,0.87,0.86,1.28
					c0.7,1.1,1.14,2.52,1.27,2.82c-0.42-0.8-1.09-2.04-1.58-2.66c-0.02-0.03-0.1-0.13-0.14-0.17c-1.25-1.52-2.4-2.46-2.4-2.46
					s-0.54,0.51-0.68,1.36c-0.08,0.48-0.09,1.04,0.05,1.5c0.6,0.53,1.28,1.15,2.1,2.04c0.91,1,1.87,2.19,2.55,3.31
					c0.35,0.6,0.67,1.21,0.92,1.8c0.19,0.43,0.36,0.85,0.49,1.23c0.1,0.32,0.2,0.75,0.26,1.22c0.03,0.26,0.05,0.63,0.04,0.88
					c-0.02,0.36-0.07,0.81-0.04,1.16c0.03,0.44,0.3,0.76,0.61,0.91c0.05-0.72,0.1-1.35,0.13-2.01
					C-330.99-391.58-330.99-392.27-331.02-392.84"/>
			</g>
			<g id="g92_1_" transform="translate(352.8648,430.4417)">
				<path id="path94_1_" class="st4" d="M-336.57-392.84c0.03-0.64,0.07-1.27,0.15-1.94c0.09-0.81,0.23-1.68,0.44-2.66
					c0.22-0.99,0.46-2,0.74-2.96c0.2-0.69,0.42-1.35,0.67-1.95c0.48-1.21,0.97-2.11,1.41-2.74c0.2-0.07,0.69-0.16,1.2-0.11
					c0.44,0.05,0.91,0.16,1.27,0.36c-0.26,0.29-0.5,0.57-0.74,0.85c-0.29,0.36-0.55,0.68-0.69,0.87c-0.18,0.25-0.6,0.87-0.86,1.28
					c-0.69,1.1-1.14,2.52-1.27,2.82c0.42-0.8,1.09-2.04,1.59-2.66c0.02-0.03,0.1-0.13,0.13-0.17c1.25-1.52,2.4-2.46,2.4-2.46
					s0.54,0.51,0.68,1.36c0.08,0.48,0.09,1.04-0.06,1.5c-0.6,0.53-1.28,1.15-2.1,2.04c-0.91,1-1.87,2.19-2.55,3.31
					c-0.35,0.6-0.67,1.21-0.93,1.8c-0.19,0.43-0.36,0.85-0.49,1.23c-0.1,0.32-0.2,0.75-0.27,1.22c-0.03,0.26-0.05,0.63-0.04,0.88
					c0.02,0.36,0.07,0.81,0.04,1.16c-0.03,0.44-0.3,0.76-0.61,0.91c-0.05-0.72-0.1-1.35-0.13-2.01
					C-336.6-391.58-336.6-392.27-336.57-392.84"/>
			</g>
			<g id="g96_1_" transform="translate(340.9161,424.1754)">
				<path id="path98_1_" class="st4" d="M-327.62-385C-327.62-385-327.62-385-327.62-385c-0.06-0.42-0.21-1.11-0.47-1.75
					c-0.22-0.56-0.54-1.24-0.92-1.9c-0.54-0.91-1.09-1.65-1.57-2.21c-0.46-0.53-1.11-1.2-1.7-1.67c-0.58-0.46-1.15-0.83-1.49-1.06
					c-0.41,0.03-0.76,0.14-1.1,0.32c-0.38,0.2-0.69,0.61-0.84,0.93c0.69,0.19,1.44,0.45,2.25,0.91c0.91,0.52,2.33,1.59,2.85,2.04
					c-1.27-0.86-1.96-1.16-2.96-1.62c-0.81-0.43-2.32-0.75-2.32-0.75c-0.08,0.21-0.01,0.95,0.11,1.36c0.14,0.47,0.35,0.82,0.56,0.96
					c0.61,0.08,1.29,0.21,2.01,0.37c0.73,0.16,1.54,0.41,2.01,0.61c1.16,0.5,1.78,1.15,2.23,1.92c0.18,0.32,0.46,0.88,0.54,1.06
					c0,0,0.65,1.44,0.83,0.98C-327.61-384.5-327.56-384.66-327.62-385"/>
			</g>
			<g id="g100_1_" transform="translate(357.4738,424.1754)">
				<path id="path102_1_" class="st4" d="M-340.02-385L-340.02-385c0.06-0.42,0.21-1.11,0.46-1.75c0.22-0.56,0.54-1.24,0.92-1.9
					c0.54-0.91,1.09-1.65,1.57-2.21c0.46-0.53,1.1-1.2,1.7-1.67c0.58-0.46,1.15-0.83,1.5-1.06c0.41,0.03,0.77,0.14,1.1,0.32
					c0.38,0.2,0.69,0.61,0.84,0.93c-0.69,0.19-1.44,0.45-2.25,0.91c-0.91,0.52-2.33,1.59-2.85,2.04c1.27-0.86,1.96-1.16,2.96-1.62
					c0.81-0.43,2.32-0.75,2.32-0.75c0.08,0.21,0.01,0.95-0.11,1.36c-0.14,0.47-0.34,0.82-0.57,0.96c-0.61,0.08-1.29,0.21-2.01,0.37
					c-0.73,0.16-1.54,0.41-2.01,0.61c-1.16,0.5-1.78,1.15-2.23,1.92c-0.18,0.32-0.46,0.88-0.54,1.06c0,0-0.65,1.44-0.83,0.98
					C-340.04-384.5-340.08-384.66-340.02-385"/>
			</g>
			<g id="g104_1_" transform="translate(288.0591,466.2497)">
				<path id="path106_1_" class="st5" d="M-288.04-437.64v28.56c0.07,1.06,0.37,1.97,1.22,2.83c1.02,1.03,2.05,1.29,3.49,1.29h21.26
					c1.44,0,2.48-0.26,3.5-1.29c0.85-0.86,1.15-1.77,1.22-2.83v-28.56c0-3.2-4.84-10.26-15.35-10.26
					C-283.31-447.9-288.04-440.85-288.04-437.64"/>
			</g>
			<g id="g108_1_" transform="translate(357.3741,363.2117)">
				<path id="path110_1_" class="st4" d="M-339.95-308.73c0.58-1.07,1.38-2.03,2.54-2.95c1.02-0.82,2.04-1.32,3.08-1.67
					c0.96-0.32,1.93-0.49,3-0.49h4.69v1.46c-0.21,0.1-0.45,0.2-0.68,0.28c-0.94,0.35-2.55,0.32-3.35,0.32
					c-0.06,0.36-0.12,0.71-0.51,1.06c-0.41,0.36-0.99,0.71-1.71,0.82c-1.58,0.24-2.51,0.39-3.95,1.06c-0.85,0.4-1.65,0.85-2.41,1.49
					c-0.26,0.22-0.58,0.55-0.8,0.86c-0.26,0.36-0.42,0.79-0.6,1.07c-0.11,0.16-0.28,0.23-0.42,0.26
					C-340.96-306.5-340.51-307.71-339.95-308.73"/>
			</g>
			<g id="g112_1_" transform="translate(349.2057,470.0227)">
				<path id="path114_1_" class="st4" d="M-333.83-442.36c0.18,0,0.25-0.92,0.22-1.48c-0.02-0.24-0.03-0.93-0.02-1.22
					c0.01-0.49,0.33-2.75,0.44-3.36c1.61,0.16,2.64,1.65,2.6,2.96c-0.59,1.26-0.95,2.28-1.42,3.75c-0.61,1.95-0.79,3.09-1.1,5.11
					c-0.29,1.88-0.38,2.8-0.37,4.64c0,1.61,0.18,2.47,0.19,4.19c0.01,0.34-0.05,0.75-0.22,1.06c-0.09,0.18-0.19,0.31-0.32,0.4
					c-0.13-0.09-0.23-0.22-0.32-0.4c-0.17-0.31-0.23-0.72-0.22-1.06c0.01-1.72,0.18-2.57,0.19-4.19c0-1.84-0.08-2.76-0.37-4.64
					c-0.31-2.02-0.49-3.16-1.1-5.11c-0.47-1.46-0.83-2.49-1.42-3.75c-0.03-1.3,1-2.79,2.61-2.96c0.12,0.61,0.43,2.87,0.43,3.36
					c0.01,0.3-0.01,0.98-0.02,1.22C-334.08-443.28-334-442.36-333.83-442.36"/>
			</g>
			<g id="g116_1_" transform="translate(410.3474,400.2141)">
				<path id="path118_1_" class="st4" d="M-379.62-355.02c-0.58,0.46-1.11,0.77-1.77,1.01c-0.86,0.32-2.34,0.3-3.07,0.3
					c0.12,0.35,0.03,0.76-0.32,1.08c-0.38,0.35-1.06,0.54-1.71,0.64c-1.45,0.22-2.3,0.36-3.62,0.98c-0.78,0.36-1.51,0.78-2.21,1.37
					c-0.24,0.2-0.54,0.51-0.73,0.78c-0.24,0.33-0.38,0.73-0.55,0.98c-0.1,0.15-0.25,0.21-0.38,0.24c0.09-1.25,0.5-2.36,1.02-3.3
					c0.53-0.98,1.26-1.86,2.32-2.71c0.94-0.74,1.87-1.21,2.83-1.53c0.88-0.29,1.77-0.45,2.75-0.45h5.45V-355.02"/>
			</g>
			<g id="g120_1_" transform="translate(341.2415,383.9068)">
				<path id="path122_1_" class="st4" d="M-327.87-334.62c-0.54-0.98-1.26-1.86-2.33-2.71c-0.94-0.74-1.87-1.21-2.82-1.53
					c-0.88-0.29-1.77-0.45-2.76-0.45h-5.45v0.58c0.59,0.46,1.11,0.77,1.77,1.01c0.86,0.32,2.34,0.3,3.07,0.3
					c-0.12,0.35-0.04,0.76,0.32,1.08c0.38,0.35,1.05,0.54,1.71,0.64c1.45,0.22,2.3,0.36,3.63,0.98c0.78,0.36,1.51,0.78,2.21,1.37
					c0.24,0.2,0.53,0.51,0.73,0.78c0.23,0.33,0.38,0.73,0.55,0.98c0.1,0.15,0.25,0.21,0.38,0.24
					C-326.94-332.58-327.35-333.69-327.87-334.62"/>
			</g>
			<g id="g124_1_" transform="translate(341.0112,363.2117)">
				<path id="path126_1_" class="st4" d="M-327.69-308.73c-0.58-1.07-1.38-2.03-2.54-2.95c-1.02-0.82-2.04-1.32-3.08-1.67
					c-0.96-0.32-1.93-0.49-3-0.49H-341v1.46c0.21,0.1,0.45,0.2,0.68,0.28c0.94,0.35,2.55,0.32,3.34,0.32
					c0.06,0.36,0.12,0.71,0.51,1.06c0.41,0.36,0.99,0.71,1.71,0.82c1.58,0.24,2.51,0.39,3.95,1.06c0.85,0.4,1.65,0.85,2.41,1.49
					c0.26,0.22,0.58,0.55,0.8,0.86c0.26,0.36,0.42,0.79,0.6,1.07c0.11,0.16,0.28,0.23,0.42,0.26
					C-326.68-306.5-327.14-307.71-327.69-308.73"/>
			</g>
			<g id="g128_1_" transform="translate(396.0359,415.6603)">
				<path id="path130_1_" class="st4" d="M-368.9-374.35c-0.76,0.28-2,0.29-2.62,0.29c0.25,0.36,0.15,0.85-0.15,1.17
					c-0.33,0.33-1.03,0.42-1.59,0.51c-1.24,0.21-1.97,0.35-3.1,0.95c-0.67,0.36-1.29,0.77-1.89,1.34c-0.21,0.2-0.46,0.49-0.62,0.76
					c-0.2,0.32-0.33,0.71-0.47,0.96c-0.09,0.14-0.22,0.2-0.32,0.24c0.07-1.23,0.43-2.31,0.87-3.23c0.46-0.95,1.08-1.81,1.99-2.64
					c0.8-0.72,1.6-1.18,2.41-1.48c0.76-0.28,1.52-0.44,2.36-0.44h5.45C-366.84-375.42-368.04-374.67-368.9-374.35"/>
			</g>
			<g id="g132_1_" transform="translate(302.4748,415.6603)">
				<path id="path134_1_" class="st4" d="M-298.84-374.35c0.75,0.28,2,0.29,2.62,0.29c-0.25,0.36-0.15,0.85,0.15,1.17
					c0.33,0.33,1.03,0.42,1.59,0.51c1.24,0.21,1.97,0.35,3.1,0.95c0.67,0.36,1.29,0.77,1.89,1.34c0.21,0.2,0.46,0.49,0.62,0.76
					c0.21,0.32,0.33,0.71,0.48,0.96c0.08,0.14,0.22,0.2,0.32,0.24c-0.07-1.23-0.43-2.31-0.87-3.23c-0.46-0.95-1.08-1.81-1.99-2.64
					c-0.8-0.72-1.6-1.18-2.41-1.48c-0.76-0.28-1.52-0.44-2.36-0.44h-5.45C-300.9-375.42-299.7-374.67-298.84-374.35"/>
			</g>
			<g id="g136_1_" transform="translate(345.5012,430.235)">
				<path id="path138_1_" class="st4" d="M-331.06-392.58c-0.03-0.64-0.07-1.27-0.15-1.94c-0.09-0.81-0.23-1.67-0.44-2.66
					c-0.22-0.99-0.46-2-0.74-2.96c-0.2-0.69-0.42-1.35-0.67-1.96c-0.48-1.21-0.97-2.11-1.41-2.74c-0.2-0.08-0.69-0.16-1.2-0.1
					c-0.45,0.05-0.91,0.16-1.27,0.36c0.27,0.29,0.5,0.57,0.74,0.85c0.29,0.36,0.55,0.68,0.69,0.87c0.18,0.25,0.6,0.87,0.86,1.28
					c0.7,1.11,1.14,2.53,1.27,2.82c-0.42-0.8-1.09-2.04-1.58-2.67c-0.02-0.03-0.1-0.13-0.14-0.17c-1.25-1.52-2.4-2.46-2.4-2.46
					s-0.54,0.51-0.68,1.36c-0.08,0.48-0.09,1.04,0.05,1.5c0.6,0.53,1.28,1.15,2.1,2.04c0.91,1,1.87,2.19,2.55,3.31
					c0.35,0.6,0.67,1.22,0.92,1.8c0.19,0.43,0.36,0.85,0.49,1.24c0.1,0.32,0.2,0.75,0.27,1.23c0.03,0.26,0.05,0.64,0.04,0.88
					c-0.02,0.35-0.07,0.81-0.04,1.16c0.03,0.44,0.3,0.76,0.61,0.91c0.05-0.72,0.1-1.35,0.13-2.01
					C-331.03-391.32-331.03-392.01-331.06-392.58"/>
			</g>
			<g id="g140_1_" transform="translate(352.9169,430.235)">
				<path id="path142_1_" class="st4" d="M-336.61-392.58c0.03-0.64,0.07-1.27,0.15-1.94c0.09-0.81,0.23-1.67,0.44-2.66
					c0.22-0.99,0.46-2,0.74-2.96c0.2-0.69,0.42-1.35,0.67-1.96c0.48-1.21,0.97-2.11,1.41-2.74c0.2-0.08,0.69-0.16,1.2-0.1
					c0.44,0.05,0.91,0.16,1.27,0.36c-0.26,0.29-0.5,0.57-0.74,0.85c-0.29,0.36-0.54,0.68-0.69,0.87c-0.18,0.25-0.6,0.87-0.86,1.28
					c-0.7,1.11-1.14,2.53-1.27,2.82c0.42-0.8,1.09-2.04,1.59-2.67c0.02-0.03,0.1-0.13,0.14-0.17c1.25-1.52,2.4-2.46,2.4-2.46
					s0.54,0.51,0.68,1.36c0.08,0.48,0.09,1.04-0.06,1.5c-0.6,0.53-1.28,1.15-2.1,2.04c-0.91,1-1.87,2.19-2.55,3.31
					c-0.35,0.6-0.67,1.22-0.93,1.8c-0.19,0.43-0.36,0.85-0.49,1.24c-0.1,0.32-0.2,0.75-0.27,1.23c-0.03,0.26-0.05,0.64-0.04,0.88
					c0.02,0.35,0.07,0.81,0.04,1.16c-0.03,0.44-0.3,0.76-0.61,0.91c-0.05-0.72-0.1-1.35-0.13-2.01
					C-336.64-391.32-336.64-392.01-336.61-392.58"/>
			</g>
			<g id="g144_1_" transform="translate(340.966,423.9736)">
				<path id="path146_1_" class="st4" d="M-327.66-384.75C-327.66-384.75-327.66-384.75-327.66-384.75
					c-0.06-0.42-0.21-1.11-0.47-1.75c-0.22-0.56-0.54-1.24-0.92-1.9c-0.54-0.91-1.09-1.66-1.57-2.21c-0.46-0.53-1.11-1.2-1.7-1.67
					c-0.58-0.46-1.15-0.83-1.49-1.06c-0.41,0.03-0.77,0.14-1.1,0.32c-0.38,0.2-0.69,0.61-0.84,0.93c0.69,0.19,1.44,0.45,2.25,0.91
					c0.91,0.52,2.33,1.59,2.85,2.04c-1.27-0.86-1.96-1.16-2.96-1.62c-0.81-0.43-2.32-0.75-2.32-0.75c-0.08,0.21-0.01,0.95,0.11,1.36
					c0.14,0.47,0.35,0.82,0.57,0.96c0.61,0.08,1.29,0.21,2.01,0.37c0.73,0.16,1.54,0.41,2.01,0.61c1.16,0.49,1.79,1.15,2.23,1.92
					c0.18,0.32,0.46,0.88,0.53,1.06c0,0,0.65,1.44,0.83,0.98C-327.65-384.25-327.6-384.4-327.66-384.75"/>
			</g>
			<g id="g148_1_" transform="translate(357.5261,423.9736)">
				<path id="path150_1_" class="st4" d="M-340.06-384.75L-340.06-384.75c0.06-0.42,0.21-1.11,0.47-1.75
					c0.22-0.56,0.54-1.24,0.92-1.9c0.54-0.91,1.09-1.66,1.57-2.21c0.46-0.53,1.1-1.2,1.7-1.67c0.58-0.46,1.15-0.83,1.5-1.06
					c0.41,0.03,0.77,0.14,1.1,0.32c0.38,0.2,0.69,0.61,0.84,0.93c-0.69,0.19-1.44,0.45-2.25,0.91c-0.91,0.52-2.33,1.59-2.85,2.04
					c1.27-0.86,1.96-1.16,2.97-1.62c0.81-0.43,2.32-0.75,2.32-0.75c0.08,0.21,0.01,0.95-0.11,1.36c-0.14,0.47-0.35,0.82-0.57,0.96
					c-0.61,0.08-1.29,0.21-2.01,0.37c-0.73,0.16-1.54,0.41-2.01,0.61c-1.16,0.49-1.78,1.15-2.23,1.92
					c-0.18,0.32-0.46,0.88-0.53,1.06c0,0-0.65,1.44-0.83,0.98C-340.08-384.25-340.12-384.4-340.06-384.75"/>
			</g>
			<g id="g152_1_" transform="translate(473.5906,359.8445)">
				<path id="path154_1_" class="st3" d="M-426.92-304.46v6.18h-0.68v-2.94h-2.96v2.94h-0.68v-6.18h0.68v2.65h2.96v-2.65H-426.92z"
					/>
			</g>
			<g id="g156_1_" transform="translate(486.1922,345.2674)">
				<path id="path158_1_" class="st3" d="M-436.35-286.22h1.87l-0.89-3.18h-0.09L-436.35-286.22z M-437.82-283.7l1.9-6.18h1.02
					l1.9,6.18h-0.72l-0.58-1.93h-2.21l-0.58,1.93H-437.82z"/>
			</g>
			<g id="g160_1_" transform="translate(506.245,335.2541)">
				<path id="path162_1_" class="st3" d="M-451.37-273.69v-6.18h0.98l2.69,4.76h0.03v-4.76h0.61v6.18h-0.56l-3.13-5.51h-0.02v5.51
					H-451.37z"/>
			</g>
			<g id="g164_1_" transform="translate(540.7231,337.2298)">
				<path id="path166_1_" class="st3" d="M-477.19-276.16c1.09,0,1.73-0.84,1.73-2.59c0-1.75-0.64-2.59-1.73-2.59
					c-1.08,0-1.73,0.84-1.73,2.59C-478.91-277-478.27-276.16-477.19-276.16 M-477.19-281.93c1.51,0,2.41,1.11,2.41,3.17
					c0,2.06-0.9,3.17-2.41,3.17c-1.51,0-2.41-1.11-2.41-3.17C-479.6-280.81-478.7-281.93-477.19-281.93"/>
			</g>
			<path id="path168_1_" class="st3" d="M68.72,61.57h-0.68v-6.18h0.68V61.57z"/>
		</g>
	</g>
</g>
<g id="guides">
</g>
</svg>
